<svg width="66" height="66" viewBox="0 0 66 66" fill="none" xmlns="http://www.w3.org/2000/svg">
<g filter="url(#filter0_d)">
<circle cx="33" cy="32" r="30" fill="#CAE7E3"/>
</g>
<path fill-rule="evenodd" clip-rule="evenodd" d="M51.2678 35.3579L35.3579 51.2678C34.3816 52.2441 32.7986 52.2441 31.8223 51.2678L15.9124 35.3579C14.9361 34.3816 14.9361 32.7986 15.9124 31.8223C16.8887 30.846 18.4716 30.846 19.448 31.8223L31.0901 43.4645L31.0901 14.5C31.0901 13.1193 32.2094 12 33.5901 12C34.9708 12 36.0901 13.1193 36.0901 14.5L36.0901 43.4645L47.7322 31.8223C48.7085 30.846 50.2915 30.846 51.2678 31.8223C52.2441 32.7986 52.2441 34.3816 51.2678 35.3579Z" fill="#6B4897"/>
<defs>
<filter id="filter0_d" x="0" y="0" width="66" height="66" filterUnits="userSpaceOnUse" color-interpolation-filters="sRGB">
<feFlood flood-opacity="0" result="BackgroundImageFix"/>
<feColorMatrix in="SourceAlpha" type="matrix" values="0 0 0 0 0 0 0 0 0 0 0 0 0 0 0 0 0 0 127 0"/>
<feOffset dy="1"/>
<feGaussianBlur stdDeviation="1.5"/>
<feColorMatrix type="matrix" values="0 0 0 0 0 0 0 0 0 0 0 0 0 0 0 0 0 0 0.3 0"/>
<feBlend mode="normal" in2="BackgroundImageFix" result="effect1_dropShadow"/>
<feBlend mode="normal" in="SourceGraphic" in2="effect1_dropShadow" result="shape"/>
</filter>
</defs>
</svg>
