<svg width="191" height="65" viewBox="0 0 191 65" fill="none" xmlns="http://www.w3.org/2000/svg">
<path d="M13.7363 13.7568H5.29883V19.4697H15.2012V23H0.904297V1.67188H15.1719V5.23145H5.29883V10.3145H13.7363V13.7568ZM22.9707 7.15039L23.1025 8.92285C24.2256 7.5459 25.7441 6.85742 27.6582 6.85742C29.6992 6.85742 31.1006 7.66309 31.8623 9.27441C32.9756 7.66309 34.5625 6.85742 36.623 6.85742C38.3418 6.85742 39.6211 7.36035 40.4609 8.36621C41.3008 9.3623 41.7207 10.8662 41.7207 12.8779V23H37.4727V12.8926C37.4727 11.9941 37.2969 11.3398 36.9453 10.9297C36.5938 10.5098 35.9736 10.2998 35.085 10.2998C33.8154 10.2998 32.9365 10.9053 32.4482 12.1162L32.4629 23H28.2295V12.9072C28.2295 11.9893 28.0488 11.3252 27.6875 10.915C27.3262 10.5049 26.7109 10.2998 25.8418 10.2998C24.6406 10.2998 23.7715 10.7979 23.2344 11.7939V23H19.001V7.15039H22.9707ZM50.9551 23H46.707V7.15039H50.9551V23ZM46.458 3.04883C46.458 2.41406 46.668 1.8916 47.0879 1.48145C47.5176 1.07129 48.0986 0.866211 48.8311 0.866211C49.5537 0.866211 50.1299 1.07129 50.5596 1.48145C50.9893 1.8916 51.2041 2.41406 51.2041 3.04883C51.2041 3.69336 50.9844 4.2207 50.5449 4.63086C50.1152 5.04102 49.5439 5.24609 48.8311 5.24609C48.1182 5.24609 47.542 5.04102 47.1025 4.63086C46.6729 4.2207 46.458 3.69336 46.458 3.04883ZM60.4238 23H56.1758V0.5H60.4238V23ZM69.8926 23H65.6445V7.15039H69.8926V23ZM65.3955 3.04883C65.3955 2.41406 65.6055 1.8916 66.0254 1.48145C66.4551 1.07129 67.0361 0.866211 67.7686 0.866211C68.4912 0.866211 69.0674 1.07129 69.4971 1.48145C69.9268 1.8916 70.1416 2.41406 70.1416 3.04883C70.1416 3.69336 69.9219 4.2207 69.4824 4.63086C69.0527 5.04102 68.4814 5.24609 67.7686 5.24609C67.0557 5.24609 66.4795 5.04102 66.04 4.63086C65.6104 4.2207 65.3955 3.69336 65.3955 3.04883ZM74.2344 14.9287C74.2344 13.3564 74.5371 11.9551 75.1426 10.7246C75.748 9.49414 76.6172 8.54199 77.75 7.86816C78.8926 7.19434 80.2158 6.85742 81.7197 6.85742C83.8584 6.85742 85.6016 7.51172 86.9492 8.82031C88.3066 10.1289 89.0635 11.9062 89.2197 14.1523L89.249 15.2363C89.249 17.668 88.5703 19.6211 87.2129 21.0957C85.8555 22.5605 84.0342 23.293 81.749 23.293C79.4639 23.293 77.6377 22.5605 76.2705 21.0957C74.9131 19.6309 74.2344 17.6387 74.2344 15.1191V14.9287ZM78.4678 15.2363C78.4678 16.7402 78.751 17.8926 79.3174 18.6934C79.8838 19.4844 80.6943 19.8799 81.749 19.8799C82.7744 19.8799 83.5752 19.4893 84.1514 18.708C84.7275 17.917 85.0156 16.6572 85.0156 14.9287C85.0156 13.4541 84.7275 12.3115 84.1514 11.501C83.5752 10.6904 82.7646 10.2852 81.7197 10.2852C80.6846 10.2852 79.8838 10.6904 79.3174 11.501C78.751 12.3018 78.4678 13.5469 78.4678 15.2363ZM45.7578 58V36.6719H52.3203C54.1953 36.6719 55.8701 37.0967 57.3447 37.9463C58.8291 38.7861 59.9863 39.9873 60.8164 41.5498C61.6465 43.1025 62.0615 44.8701 62.0615 46.8525V47.834C62.0615 49.8164 61.6514 51.5791 60.8311 53.1221C60.0205 54.665 58.873 55.8613 57.3887 56.7109C55.9043 57.5605 54.2295 57.9902 52.3643 58H45.7578ZM50.1523 40.2314V54.4697H52.2764C53.9951 54.4697 55.3086 53.9082 56.2168 52.7852C57.125 51.6621 57.5889 50.0557 57.6084 47.9658V46.8379C57.6084 44.6699 57.1592 43.0293 56.2607 41.916C55.3623 40.793 54.0488 40.2314 52.3203 40.2314H50.1523ZM70.959 58H66.7109V42.1504H70.959V58ZM66.4619 38.0488C66.4619 37.4141 66.6719 36.8916 67.0918 36.4814C67.5215 36.0713 68.1025 35.8662 68.835 35.8662C69.5576 35.8662 70.1338 36.0713 70.5635 36.4814C70.9932 36.8916 71.208 37.4141 71.208 38.0488C71.208 38.6934 70.9883 39.2207 70.5488 39.6309C70.1191 40.041 69.5479 40.2461 68.835 40.2461C68.1221 40.2461 67.5459 40.041 67.1064 39.6309C66.6768 39.2207 66.4619 38.6934 66.4619 38.0488ZM77.1172 58V45.2559H74.7588V42.1504H77.1172V40.8027C77.1172 39.0254 77.625 37.6484 78.6406 36.6719C79.666 35.6855 81.0967 35.1924 82.9326 35.1924C83.5186 35.1924 84.2363 35.29 85.0859 35.4854L85.042 38.7666C84.6904 38.6787 84.2607 38.6348 83.7529 38.6348C82.1611 38.6348 81.3652 39.3818 81.3652 40.876V42.1504H84.5146V45.2559H81.3652V58H77.1172ZM89.3691 58V45.2559H87.0107V42.1504H89.3691V40.8027C89.3691 39.0254 89.877 37.6484 90.8926 36.6719C91.918 35.6855 93.3486 35.1924 95.1846 35.1924C95.7705 35.1924 96.4883 35.29 97.3379 35.4854L97.2939 38.7666C96.9424 38.6787 96.5127 38.6348 96.0049 38.6348C94.4131 38.6348 93.6172 39.3818 93.6172 40.876V42.1504H96.7666V45.2559H93.6172V58H89.3691ZM107.407 58.293C105.083 58.293 103.188 57.5801 101.724 56.1543C100.269 54.7285 99.541 52.8291 99.541 50.4561V50.0459C99.541 48.4541 99.8486 47.0332 100.464 45.7832C101.079 44.5234 101.948 43.5566 103.071 42.8828C104.204 42.1992 105.493 41.8574 106.938 41.8574C109.106 41.8574 110.811 42.541 112.051 43.9082C113.301 45.2754 113.926 47.2139 113.926 49.7236V51.4521H103.833C103.97 52.4873 104.38 53.3174 105.063 53.9424C105.757 54.5674 106.631 54.8799 107.686 54.8799C109.316 54.8799 110.591 54.2891 111.509 53.1074L113.589 55.4365C112.954 56.335 112.095 57.0381 111.011 57.5459C109.927 58.0439 108.726 58.293 107.407 58.293ZM106.924 45.2852C106.084 45.2852 105.4 45.5684 104.873 46.1348C104.355 46.7012 104.023 47.5117 103.877 48.5664H109.766V48.2295C109.746 47.292 109.492 46.5693 109.004 46.0615C108.516 45.5439 107.822 45.2852 106.924 45.2852ZM126.749 46.1201C126.173 46.042 125.665 46.0029 125.226 46.0029C123.624 46.0029 122.574 46.5449 122.076 47.6289V58H117.843V42.1504H121.842L121.959 44.04C122.809 42.585 123.985 41.8574 125.489 41.8574C125.958 41.8574 126.397 41.9209 126.808 42.0479L126.749 46.1201ZM129.348 49.958C129.348 47.4873 129.899 45.5195 131.003 44.0547C132.116 42.5898 133.635 41.8574 135.559 41.8574C137.102 41.8574 138.376 42.4336 139.382 43.5859V35.5H143.63V58H139.807L139.602 56.3154C138.547 57.6338 137.189 58.293 135.529 58.293C133.664 58.293 132.165 57.5605 131.032 56.0957C129.909 54.6211 129.348 52.5752 129.348 49.958ZM133.581 50.2656C133.581 51.75 133.84 52.8877 134.357 53.6787C134.875 54.4697 135.627 54.8652 136.613 54.8652C137.922 54.8652 138.845 54.3135 139.382 53.21V46.9551C138.854 45.8516 137.941 45.2998 136.643 45.2998C134.602 45.2998 133.581 46.9551 133.581 50.2656ZM152.879 58H148.631V42.1504H152.879V58ZM148.382 38.0488C148.382 37.4141 148.592 36.8916 149.012 36.4814C149.441 36.0713 150.022 35.8662 150.755 35.8662C151.478 35.8662 152.054 36.0713 152.483 36.4814C152.913 36.8916 153.128 37.4141 153.128 38.0488C153.128 38.6934 152.908 39.2207 152.469 39.6309C152.039 40.041 151.468 40.2461 150.755 40.2461C150.042 40.2461 149.466 40.041 149.026 39.6309C148.597 39.2207 148.382 38.6934 148.382 38.0488ZM161.776 42.1504L161.908 43.9814C163.041 42.5654 164.56 41.8574 166.464 41.8574C168.144 41.8574 169.394 42.3506 170.214 43.3369C171.034 44.3232 171.454 45.7979 171.474 47.7607V58H167.24V47.8633C167.24 46.9648 167.045 46.3154 166.654 45.915C166.264 45.5049 165.614 45.2998 164.706 45.2998C163.515 45.2998 162.621 45.8076 162.025 46.8232V58H157.792V42.1504H161.776ZM175.581 49.958C175.581 47.5264 176.157 45.5684 177.31 44.084C178.472 42.5996 180.034 41.8574 181.997 41.8574C183.735 41.8574 185.088 42.4531 186.055 43.6445L186.23 42.1504H190.068V57.4727C190.068 58.8594 189.751 60.0654 189.116 61.0908C188.491 62.1162 187.607 62.8975 186.465 63.4346C185.322 63.9717 183.984 64.2402 182.451 64.2402C181.289 64.2402 180.156 64.0059 179.053 63.5371C177.949 63.0781 177.114 62.4824 176.548 61.75L178.423 59.1719C179.478 60.3535 180.757 60.9443 182.261 60.9443C183.384 60.9443 184.258 60.6416 184.883 60.0361C185.508 59.4404 185.82 58.5908 185.82 57.4873V56.6377C184.844 57.7412 183.56 58.293 181.968 58.293C180.063 58.293 178.521 57.5508 177.339 56.0664C176.167 54.5723 175.581 52.5947 175.581 50.1338V49.958ZM179.814 50.2656C179.814 51.7012 180.103 52.8291 180.679 53.6494C181.255 54.46 182.046 54.8652 183.052 54.8652C184.341 54.8652 185.264 54.3818 185.82 53.415V46.75C185.254 45.7832 184.341 45.2998 183.081 45.2998C182.065 45.2998 181.265 45.7148 180.679 46.5449C180.103 47.375 179.814 48.6152 179.814 50.2656Z" fill="#6B4897"/>
</svg>
